<svg width="29" height="29" viewBox="0 0 28.8 28.8" fill="none" xmlns="http://www.w3.org/2000/svg">
  <g clip-path="url(#clip0)">
    <path d="M19.2002 25.2001V22.8001C19.2002 21.5271 18.6945 20.3062 17.7943 19.406C16.8941 18.5058 15.6732 18.0001 14.4002 18.0001H6.0002C4.72716 18.0001 3.50626 18.5058 2.60608 19.406C1.70591 20.3062 1.2002 21.5271 1.2002 22.8001V25.2001M20.4002 13.2001L22.8002 15.6001L27.6002 10.8001M15.0002 8.4001C15.0002 11.0511 12.8512 13.2001 10.2002 13.2001C7.54923 13.2001 5.4002 11.0511 5.4002 8.4001C5.4002 5.74913 7.54923 3.6001 10.2002 3.6001C12.8512 3.6001 15.0002 5.74913 15.0002 8.4001Z"
      stroke="black"
      stroke-width="2.7"
      stroke-linecap="round"
      stroke-linejoin="round"
    />
  </g>
  <defs>
    <clipPath id="clip0">
      <rect width="28.8" height="28.8" fill="white"/>
    </clipPath>
  </defs>
</svg>