<svg width="40" height="40" viewBox="0 0 40 40" fill="none" xmlns="http://www.w3.org/2000/svg">
<path d="M23.3346 3.33301H10.0013C9.11725 3.33301 8.2694 3.6842 7.64428 4.30932C7.01916 4.93444 6.66797 5.78229 6.66797 6.66634V33.333C6.66797 34.2171 7.01916 35.0649 7.64428 35.69C8.2694 36.3152 9.11725 36.6663 10.0013 36.6663H30.0013C30.8854 36.6663 31.7332 36.3152 32.3583 35.69C32.9834 35.0649 33.3346 34.2171 33.3346 33.333V13.333M23.3346 3.33301L33.3346 13.333M23.3346 3.33301L23.3346 13.333H33.3346M26.668 21.6663H13.3346M26.668 28.333H13.3346M16.668 14.9997H13.3346" stroke="white" stroke-width="3.5" stroke-linecap="round" stroke-linejoin="round"/>
</svg>
