<svg width="27" height="27" viewBox="0 0 27 27" fill="none" xmlns="http://www.w3.org/2000/svg">
<path d="M13.4999 14.6249C14.1212 14.6249 14.6249 14.1212 14.6249 13.4999C14.6249 12.8786 14.1212 12.3749 13.4999 12.3749C12.8786 12.3749 12.3749 12.8786 12.3749 13.4999C12.3749 14.1212 12.8786 14.6249 13.4999 14.6249Z" stroke="black" stroke-width="2.36248" stroke-linecap="round" stroke-linejoin="round"/>
<path d="M21.3748 14.6249C21.9962 14.6249 22.4998 14.1212 22.4998 13.4999C22.4998 12.8786 21.9962 12.3749 21.3748 12.3749C20.7535 12.3749 20.2499 12.8786 20.2499 13.4999C20.2499 14.1212 20.7535 14.6249 21.3748 14.6249Z" stroke="black" stroke-width="2.36248" stroke-linecap="round" stroke-linejoin="round"/>
<path d="M5.62499 14.6249C6.2463 14.6249 6.74998 14.1212 6.74998 13.4999C6.74998 12.8786 6.2463 12.3749 5.62499 12.3749C5.00368 12.3749 4.5 12.8786 4.5 13.4999C4.5 14.1212 5.00368 14.6249 5.62499 14.6249Z" stroke="black" stroke-width="2.36248" stroke-linecap="round" stroke-linejoin="round"/>
</svg>
