<svg width="27" height="27" viewBox="0 0 27 27" fill="none" xmlns="http://www.w3.org/2000/svg">
<path d="M4.4812 21.2861V19.0454H6.72184V11.2032C6.72184 9.65339 7.18864 8.281 8.12224 7.08599C9.05584 5.87231 10.2695 5.07875 11.7633 4.70531V3.92108C11.7633 3.45428 11.922 3.06217 12.2394 2.74474C12.5755 2.40865 12.977 2.2406 13.4438 2.2406C13.9106 2.2406 14.3027 2.40865 14.6201 2.74474C14.9562 3.06217 15.1242 3.45428 15.1242 3.92108V4.70531C16.618 5.07875 17.8317 5.87231 18.7653 7.08599C19.6989 8.281 20.1657 9.65339 20.1657 11.2032V19.0454H22.4063V21.2861H4.4812ZM13.4438 24.647C12.8276 24.647 12.2954 24.4323 11.8473 24.0028C11.4179 23.5547 11.2031 23.0225 11.2031 22.4064H15.6844C15.6844 23.0225 15.4603 23.5547 15.0122 24.0028C14.5828 24.4323 14.0599 24.647 13.4438 24.647ZM8.96248 19.0454H17.925V11.2032C17.925 9.97081 17.4863 8.91584 16.6087 8.03826C15.7311 7.16067 14.6761 6.72188 13.4438 6.72188C12.2114 6.72188 11.1564 7.16067 10.2789 8.03826C9.40128 8.91584 8.96248 9.97081 8.96248 11.2032V19.0454Z" fill="black"/>
</svg>
