<svg width="20" height="21" viewBox="0 0 20 21" fill="none" xmlns="http://www.w3.org/2000/svg">
<path d="M4.15929e-05 8.12769C4.15929e-05 7.00733 0.210533 5.95826 0.631517 4.98049C1.0525 3.99593 1.63645 3.1302 2.38335 2.38329C3.13026 1.63639 3.9926 1.05244 4.97037 0.631459C5.95492 0.210475 7.00738 -1.6965e-05 8.12774 -1.6965e-05C9.2481 -1.6965e-05 10.2972 0.210475 11.2749 0.631459C12.2595 1.05244 13.1252 1.63639 13.8721 2.38329C14.619 3.1302 15.203 3.99593 15.624 4.98049C16.045 5.95826 16.2554 7.00733 16.2554 8.12769C16.2554 9.05792 16.1061 9.94063 15.8073 10.7758C15.5153 11.611 15.1079 12.3681 14.5851 13.0471L19.5656 18.0581C19.6742 18.1668 19.7557 18.2924 19.81 18.435C19.8712 18.5776 19.9017 18.7304 19.9017 18.8933C19.9017 19.1174 19.8508 19.3211 19.7489 19.5044C19.6539 19.6878 19.5181 19.8304 19.3415 19.9322C19.165 20.0408 18.9613 20.0952 18.7304 20.0952C18.5675 20.0952 18.4113 20.0646 18.2619 20.0035C18.1193 19.9492 17.9869 19.8643 17.8647 19.7489L12.8536 14.7276C12.1882 15.2029 11.4549 15.5764 10.6536 15.848C9.85242 16.1196 9.01045 16.2554 8.12774 16.2554C7.00738 16.2554 5.95492 16.0449 4.97037 15.6239C3.9926 15.2029 3.13026 14.619 2.38335 13.8721C1.63645 13.1252 1.0525 12.2628 0.631517 11.2851C0.210533 10.3005 4.15929e-05 9.24805 4.15929e-05 8.12769ZM1.74169 8.12769C1.74169 9.01039 1.90465 9.83878 2.23058 10.6128C2.56329 11.3801 3.02162 12.0557 3.60556 12.6397C4.1963 13.2236 4.87531 13.682 5.64258 14.0147C6.41665 14.3474 7.24504 14.5137 8.12774 14.5137C9.01045 14.5137 9.83544 14.3474 10.6027 14.0147C11.3768 13.682 12.0558 13.2236 12.6397 12.6397C13.2237 12.0557 13.682 11.3801 14.0147 10.6128C14.3474 9.83878 14.5138 9.01039 14.5138 8.12769C14.5138 7.24498 14.3474 6.41999 14.0147 5.65271C13.682 4.87864 13.2237 4.19964 12.6397 3.61569C12.0558 3.02496 11.3768 2.56663 10.6027 2.2407C9.83544 1.90799 9.01045 1.74163 8.12774 1.74163C7.24504 1.74163 6.41665 1.90799 5.64258 2.2407C4.87531 2.56663 4.1963 3.02496 3.60556 3.61569C3.02162 4.19964 2.56329 4.87864 2.23058 5.65271C1.90465 6.41999 1.74169 7.24498 1.74169 8.12769Z" fill="#727272"/>
</svg>
