<svg width="26" height="26" viewBox="0 0 26 26" fill="none" xmlns="http://www.w3.org/2000/svg">
<path d="M12.9366 16.192C14.7345 16.192 16.192 14.7345 16.192 12.9366C16.192 11.1387 14.7345 9.68115 12.9366 9.68115C11.1387 9.68115 9.68115 11.1387 9.68115 12.9366C9.68115 14.7345 11.1387 16.192 12.9366 16.192Z" stroke="black" stroke-width="2" stroke-linecap="round" stroke-linejoin="round"/>
<path d="M20.9666 16.192C20.8222 16.5193 20.7791 16.8824 20.8429 17.2344C20.9068 17.5864 21.0746 17.9112 21.3247 18.167L21.3899 18.2321C21.5916 18.4336 21.7517 18.673 21.8609 18.9365C21.9702 19.1999 22.0264 19.4824 22.0264 19.7676C22.0264 20.0528 21.9702 20.3352 21.8609 20.5987C21.7517 20.8621 21.5916 21.1015 21.3899 21.303C21.1883 21.5048 20.9489 21.6649 20.6855 21.7741C20.422 21.8833 20.1396 21.9396 19.8544 21.9396C19.5692 21.9396 19.2868 21.8833 19.0233 21.7741C18.7598 21.6649 18.5205 21.5048 18.3189 21.303L18.2538 21.2379C17.998 20.9878 17.6732 20.82 17.3212 20.7561C16.9692 20.6923 16.6061 20.7354 16.2788 20.8798C15.9579 21.0174 15.6842 21.2458 15.4913 21.5369C15.2985 21.8281 15.1951 22.1692 15.1937 22.5184V22.7029C15.1937 23.2785 14.965 23.8305 14.558 24.2375C14.151 24.6445 13.599 24.8732 13.0234 24.8732C12.4478 24.8732 11.8958 24.6445 11.4888 24.2375C11.0818 23.8305 10.8531 23.2785 10.8531 22.7029V22.6052C10.8447 22.246 10.7284 21.8977 10.5194 21.6055C10.3104 21.3133 10.0183 21.0907 9.68115 20.9666C9.35386 20.8222 8.99079 20.7791 8.63878 20.8429C8.28676 20.9068 7.96194 21.0746 7.70619 21.3247L7.64108 21.3899C7.43952 21.5916 7.20016 21.7517 6.93669 21.8609C6.67322 21.9702 6.39081 22.0264 6.1056 22.0264C5.82039 22.0264 5.53798 21.9702 5.27451 21.8609C5.01104 21.7517 4.77169 21.5916 4.57012 21.3899C4.36834 21.1883 4.20826 20.9489 4.09904 20.6855C3.98982 20.422 3.93361 20.1396 3.93361 19.8544C3.93361 19.5692 3.98982 19.2868 4.09904 19.0233C4.20826 18.7598 4.36834 18.5205 4.57012 18.3189L4.63523 18.2538C4.8854 17.998 5.05321 17.6732 5.11704 17.3212C5.18087 16.9692 5.13778 16.6061 4.99333 16.2788C4.85577 15.9579 4.62737 15.6842 4.33624 15.4913C4.0451 15.2985 3.70395 15.1951 3.35476 15.1937H3.17029C2.59469 15.1937 2.04267 14.965 1.63566 14.558C1.22865 14.151 1 13.599 1 13.0234C1 12.4478 1.22865 11.8958 1.63566 11.4888C2.04267 11.0818 2.59469 10.8531 3.17029 10.8531H3.26795C3.62713 10.8447 3.97547 10.7284 4.26769 10.5194C4.55992 10.3104 4.7825 10.0183 4.90652 9.68115C5.05097 9.35386 5.09406 8.99079 5.03023 8.63878C4.9664 8.28676 4.79859 7.96194 4.54842 7.70619L4.48331 7.64108C4.28153 7.43952 4.12145 7.20016 4.01223 6.93669C3.90301 6.67322 3.8468 6.39081 3.8468 6.1056C3.8468 5.82039 3.90301 5.53798 4.01223 5.27451C4.12145 5.01104 4.28153 4.77169 4.48331 4.57012C4.68487 4.36834 4.92423 4.20826 5.1877 4.09904C5.45117 3.98982 5.73358 3.93361 6.01879 3.93361C6.304 3.93361 6.58641 3.98982 6.84988 4.09904C7.11335 4.20826 7.35271 4.36834 7.55427 4.57012L7.61938 4.63523C7.87512 4.8854 8.19995 5.05321 8.55196 5.11704C8.90398 5.18087 9.26704 5.13778 9.59434 4.99333H9.68115C10.0021 4.85577 10.2758 4.62737 10.4686 4.33624C10.6614 4.0451 10.7649 3.70395 10.7663 3.35476V3.17029C10.7663 2.59469 10.995 2.04267 11.402 1.63566C11.809 1.22865 12.361 1 12.9366 1C13.5122 1 14.0642 1.22865 14.4712 1.63566C14.8782 2.04267 15.1069 2.59469 15.1069 3.17029V3.26795C15.1083 3.61714 15.2117 3.95829 15.4045 4.24943C15.5973 4.54056 15.8711 4.76896 16.192 4.90652C16.5193 5.05097 16.8824 5.09406 17.2344 5.03023C17.5864 4.9664 17.9112 4.79859 18.167 4.54842L18.2321 4.48331C18.4336 4.28153 18.673 4.12145 18.9365 4.01223C19.1999 3.90301 19.4824 3.8468 19.7676 3.8468C20.0528 3.8468 20.3352 3.90301 20.5987 4.01223C20.8621 4.12145 21.1015 4.28153 21.303 4.48331C21.5048 4.68487 21.6649 4.92423 21.7741 5.1877C21.8833 5.45117 21.9396 5.73358 21.9396 6.01879C21.9396 6.304 21.8833 6.58641 21.7741 6.84988C21.6649 7.11335 21.5048 7.35271 21.303 7.55427L21.2379 7.61938C20.9878 7.87512 20.82 8.19995 20.7561 8.55196C20.6923 8.90398 20.7354 9.26704 20.8798 9.59434V9.68115C21.0174 10.0021 21.2458 10.2758 21.5369 10.4686C21.8281 10.6614 22.1692 10.7649 22.5184 10.7663H22.7029C23.2785 10.7663 23.8305 10.995 24.2375 11.402C24.6445 11.809 24.8732 12.361 24.8732 12.9366C24.8732 13.5122 24.6445 14.0642 24.2375 14.4712C23.8305 14.8782 23.2785 15.1069 22.7029 15.1069H22.6052C22.256 15.1083 21.9149 15.2117 21.6237 15.4045C21.3326 15.5973 21.1042 15.8711 20.9666 16.192Z" stroke="black" stroke-width="2" stroke-linecap="round" stroke-linejoin="round"/>
</svg>
