<svg width="18" height="18" viewBox="0 0 18 18" fill="none" xmlns="http://www.w3.org/2000/svg">
<g clip-path="url(#clip0_588_1806)">
<path d="M7.84106 2.85096H2.8514C2.4733 2.85096 2.11069 3.00116 1.84334 3.26852C1.57598 3.53587 1.42578 3.89848 1.42578 4.27658V14.2559C1.42578 14.634 1.57598 14.9966 1.84334 15.264C2.11069 15.5313 2.4733 15.6815 2.8514 15.6815H12.8307C13.2088 15.6815 13.5714 15.5313 13.8388 15.264C14.1061 14.9966 14.2563 14.634 14.2563 14.2559V9.26625M13.1871 1.78175C13.4707 1.49818 13.8553 1.33887 14.2563 1.33887C14.6574 1.33887 15.042 1.49818 15.3256 1.78175C15.6091 2.06532 15.7684 2.44993 15.7684 2.85096C15.7684 3.252 15.6091 3.6366 15.3256 3.92018L8.55387 10.6919L5.70264 11.4047L6.41545 8.55344L13.1871 1.78175Z" stroke="black" stroke-width="1.71074" stroke-linecap="round" stroke-linejoin="round"/>
</g>
<defs>
<clipPath id="clip0_588_1806">
<rect width="17.1074" height="17.1074" fill="white"/>
</clipPath>
</defs>
</svg>
