<svg width="18" height="18" viewBox="0 0 18 18" fill="none" xmlns="http://www.w3.org/2000/svg">
<path d="M7.68836 1.81216H1.70852C1.2554 1.81216 0.820826 1.99217 0.500415 2.31258C0.180005 2.63299 0 3.06756 0 3.52069V15.4804C0 15.9335 0.180005 16.3681 0.500415 16.6885C0.820826 17.0089 1.2554 17.1889 1.70852 17.1889H13.6682C14.1213 17.1889 14.5559 17.0089 14.8763 16.6885C15.1967 16.3681 15.3767 15.9335 15.3767 15.4804V9.50052" fill="#042666"/>
<path d="M14.0953 0.53077C14.4352 0.190924 14.8961 -5.06411e-09 15.3767 0C15.8573 5.06411e-09 16.3183 0.190924 16.6581 0.53077C16.998 0.870617 17.1889 1.33155 17.1889 1.81216C17.1889 2.29278 16.998 2.75371 16.6581 3.09356L8.54262 11.209L5.12557 12.0633L5.97984 8.64626L14.0953 0.53077Z" fill="#042666"/>
</svg>
