<svg width="140" height="72" viewBox="0 0 140 72" fill="none" xmlns="http://www.w3.org/2000/svg">
<path d="M94.7439 13.4458C93.3287 11.9554 91.6484 10.7731 89.799 9.96645C87.9495 9.15981 85.9673 8.74463 83.9654 8.74463C81.9635 8.74463 79.9812 9.15981 78.1318 9.96645C76.2824 10.7731 74.6021 11.9554 73.1868 13.4458L70.2498 16.5375L67.3127 13.4458C64.454 10.4367 60.5769 8.74619 56.5342 8.74619C52.4914 8.74619 48.6143 10.4367 45.7556 13.4458C42.897 16.4549 41.291 20.5361 41.291 24.7916C41.291 29.0471 42.897 33.1284 45.7556 36.1375L70.2498 61.9208L94.7439 36.1375C96.1598 34.6477 97.283 32.879 98.0493 30.9322C98.8156 28.9855 99.21 26.8989 99.21 24.7916C99.21 22.6844 98.8156 20.5978 98.0493 18.651C97.283 16.7042 96.1598 14.9355 94.7439 13.4458Z" stroke="#F3C52A" stroke-width="3" stroke-linecap="round" stroke-linejoin="round"/>
</svg>
