<svg
  version="1.1"
  id="Layer_1"
  xmlns="http://www.w3.org/2000/svg"
  xmlns:xlink="http://www.w3.org/1999/xlink"
  viewBox="380 175 1240 1605"
  xml:space="preserve"
>
<path fill="#f3be0f" opacity="1.000000" stroke="none" 
	d="
M1019.711487,1411.833984 
	C1002.888855,1411.863525 985.793030,1413.716431 969.344177,1411.251465 
	C959.170837,1409.726929 948.962219,1410.785889 939.218445,1408.602051 
	C933.555481,1407.333008 928.114380,1407.546875 922.585327,1406.975586 
	C916.987854,1406.397339 911.385925,1405.795288 905.824890,1404.947998 
	C898.048950,1403.763184 889.736816,1403.643188 882.751160,1400.572144 
	C877.945129,1398.459229 872.260193,1401.337769 868.067017,1396.418213 
	C866.310547,1394.357544 861.701477,1394.626465 858.352539,1394.049805 
	C853.740662,1393.255371 849.044983,1392.894531 844.474731,1391.925659 
	C838.945862,1390.753540 832.236633,1390.625610 828.378540,1387.316895 
	C824.186157,1383.721558 819.645508,1385.634155 815.486328,1383.334595 
	C808.111145,1379.257324 799.628479,1377.169678 791.582581,1374.324707 
	C787.276001,1372.801880 782.866028,1371.564331 778.588074,1369.969238 
	C772.047180,1367.530029 765.572327,1364.912476 759.084290,1362.333008 
	C754.662964,1360.575317 750.190674,1358.917725 745.882629,1356.911621 
	C742.161621,1355.178833 738.709900,1352.873535 735.013245,1351.080688 
	C729.883667,1348.592896 724.550598,1346.517700 719.462769,1343.952515 
	C714.053406,1341.225098 708.797424,1338.186523 703.531128,1335.184570 
	C697.088501,1331.512085 690.674377,1327.787109 684.305908,1323.987793 
	C679.778076,1321.286621 675.345825,1318.425171 670.871338,1315.634399 
	C667.269775,1313.388184 663.639893,1311.185547 660.075623,1308.881592 
	C656.504883,1306.573486 652.948730,1304.236206 649.477600,1301.782349 
	C643.475037,1297.539062 637.542908,1293.195923 631.581909,1288.893799 
	C630.248352,1287.931152 628.891479,1286.998291 627.591736,1285.991943 
	C624.630493,1283.699585 621.600037,1281.481567 618.789185,1279.015137 
	C616.988647,1277.435181 615.553467,1275.443604 613.903137,1273.684692 
	C613.369263,1273.115723 612.740845,1272.439697 612.039062,1272.254395 
	C604.690796,1270.315186 601.787842,1263.053467 596.111084,1259.058105 
	C583.790100,1250.386719 573.994629,1239.030151 563.876038,1227.999512 
	C558.082458,1221.683716 551.339661,1216.245361 545.440552,1210.017456 
	C540.933289,1205.259033 537.079407,1199.881592 532.936523,1194.778198 
	C532.833740,1194.651733 532.776306,1194.476685 532.653992,1194.379272 
	C523.939697,1187.437378 518.441101,1177.706055 511.532928,1169.257202 
	C506.412842,1162.995239 500.679474,1156.816162 497.664673,1148.820435 
	C496.919006,1146.842773 493.965027,1145.887451 492.629059,1143.020142 
	C490.000488,1137.378540 485.586304,1132.588013 482.097900,1127.321655 
	C479.330902,1123.144165 476.768799,1118.825073 474.250793,1114.490356 
	C471.484711,1109.728882 468.817993,1104.907104 466.206421,1100.058594 
	C461.421234,1091.174805 456.698273,1082.257446 451.968903,1073.343750 
	C448.547150,1066.894531 445.158234,1060.427856 441.742157,1053.975586 
	C441.684326,1053.866333 441.346619,1053.847778 441.342712,1053.775757 
	C440.846954,1044.612671 432.563873,1038.598267 431.718109,1029.339233 
	C431.328156,1025.069946 428.070587,1021.117615 426.453369,1016.891479 
	C424.449524,1011.655029 422.865936,1006.259399 420.975983,1000.977173 
	C419.152893,995.881775 417.052460,990.883789 415.298035,985.766174 
	C414.011200,982.012390 413.134369,978.120056 411.986816,974.316040 
	C410.928345,970.807190 409.736511,967.338745 408.639771,963.841125 
	C408.354034,962.929871 408.249451,961.962830 407.983978,961.043945 
	C406.526581,955.998962 405.004761,950.972229 403.586334,945.916443 
	C402.679657,942.684814 401.739349,939.446045 401.126312,936.152405 
	C400.265686,931.528442 399.867432,926.816406 398.955841,922.204468 
	C397.876740,916.744751 396.406097,911.363342 395.229889,905.921082 
	C394.918243,904.479065 395.131348,902.931458 394.987091,901.443665 
	C394.692841,898.408203 396.336884,894.790649 392.426880,892.780457 
	C392.135834,892.630798 392.093536,891.872986 392.048553,891.387451 
	C391.355347,883.900208 390.543671,876.420593 390.033722,868.920532 
	C389.244263,857.310486 389.642181,845.527710 387.790985,834.101013 
	C383.941376,810.338989 387.230927,786.531128 386.004303,762.786316 
	C389.985626,753.952332 386.923798,744.591003 388.066650,735.566162 
	C389.039154,727.886475 390.738678,720.301331 391.906799,712.642395 
	C392.279572,710.198303 391.756378,707.624695 392.053467,705.159851 
	C392.338287,702.797058 390.439362,699.435303 394.613007,698.470581 
	C394.831085,698.420227 394.929657,697.594910 394.980835,697.119263 
	C395.665466,690.756897 396.038147,684.343323 397.095215,678.044312 
	C397.942719,672.994263 399.664856,668.094971 400.903412,663.105103 
	C401.679901,659.976685 402.285828,656.805725 402.957428,653.651550 
	C403.978912,648.854248 404.754822,643.989197 406.066406,639.272888 
	C407.737579,633.263550 409.955688,627.408081 411.709259,621.419250 
	C412.704041,618.021973 412.962219,614.399780 414.057098,611.043579 
	C415.355499,607.063599 417.389648,603.327209 418.753479,599.364319 
	C420.363159,594.687195 421.349274,589.789490 423.058380,585.154297 
	C425.023438,579.824951 427.647369,574.740845 429.678497,569.432861 
	C431.347717,565.070557 431.929352,560.177979 434.172058,556.182129 
	C436.316376,552.361572 436.070526,547.370850 440.446625,544.467529 
	C442.057617,543.398743 442.116913,540.044373 442.965485,537.762817 
	C445.221649,531.696533 447.025269,525.618958 451.464447,520.357056 
	C454.703705,516.517456 455.878235,510.942139 458.007660,506.155945 
	C458.589508,504.848145 459.248779,503.569122 459.953125,502.322449 
	C462.986298,496.953613 466.066101,491.611084 469.097351,486.241180 
	C472.817993,479.650085 475.533447,472.154297 480.498901,466.703369 
	C484.969666,461.795563 487.703064,455.977417 491.725159,450.919647 
	C496.385712,445.059052 499.988617,438.367310 504.224884,432.155212 
	C506.303589,429.106873 508.752777,426.308258 511.075409,423.429810 
	C514.707336,418.928741 518.365051,414.448456 522.028137,409.972687 
	C528.024475,402.645935 533.884155,395.199829 540.090637,388.055206 
	C544.213013,383.309631 548.863464,379.025177 553.233765,374.492035 
	C559.522156,367.969147 565.672119,361.309692 572.063110,354.889648 
	C578.863281,348.058533 585.766724,341.321228 592.833740,334.768036 
	C597.486389,330.453644 602.431152,326.441437 607.382874,322.465485 
	C614.905579,316.425201 622.399170,310.330078 630.188171,304.645996 
	C636.048767,300.369141 642.518738,296.930908 648.412781,292.695343 
	C654.092224,288.613983 659.095398,283.555206 664.919189,279.721008 
	C671.095581,275.654602 677.967651,272.661011 684.384399,268.937683 
	C688.730103,266.416077 692.629700,263.095642 697.055481,260.748596 
	C704.945557,256.564423 713.139526,252.957199 721.088501,248.878769 
	C724.214600,247.274826 726.850159,244.684677 730.015381,243.194138 
	C735.660034,240.536041 741.569214,238.446274 747.306335,235.976120 
	C751.111084,234.337921 754.774353,232.373322 758.563477,230.696014 
	C763.025330,228.720932 767.567078,226.927139 772.051575,225.002045 
	C777.138977,222.818176 782.108765,220.321304 787.301392,218.432602 
	C792.236023,216.637711 797.429688,215.568161 802.437439,213.956055 
	C805.512268,212.966187 808.389221,211.358398 811.467529,210.383057 
	C815.593750,209.075653 819.825928,208.100754 824.018066,207.003952 
	C826.836060,206.266663 830.380798,206.381668 832.329285,204.669144 
	C835.806458,201.612869 840.980713,204.713272 844.126587,200.289047 
	C845.382935,198.522171 849.397095,198.588425 852.203003,198.080460 
	C856.665649,197.272552 861.208862,196.878311 865.642578,195.949234 
	C870.715271,194.886276 875.705017,193.427826 880.732971,192.149948 
	C881.048523,192.069733 881.382874,192.060684 881.709290,192.025986 
	C888.072876,191.349945 894.445862,190.747833 900.791443,189.932007 
	C901.919067,189.787018 902.931396,188.752716 903.999390,188.133301 
	C904.608582,187.779953 905.199402,187.183899 905.838135,187.124573 
	C913.946228,186.371613 922.054688,185.598709 930.176758,185.025330 
	C941.023621,184.259583 952.035095,184.581818 962.705078,182.807999 
	C986.272644,178.890076 1009.931274,181.050247 1033.450806,181.585510 
	C1042.910156,181.800781 1052.689941,182.005646 1062.236694,183.110565 
	C1069.565063,183.958725 1076.786499,185.704544 1084.077637,186.917572 
	C1085.863770,187.214722 1087.769043,186.777298 1089.562988,187.049545 
	C1093.017090,187.573746 1097.333862,185.048172 1099.700684,189.770950 
	C1099.825684,190.020416 1100.631348,189.941742 1101.122559,189.992844 
	C1107.526611,190.659134 1114.013672,190.889923 1120.314819,192.093597 
	C1128.196411,193.599136 1135.897705,196.023621 1143.730957,197.815018 
	C1147.982056,198.787231 1152.367920,199.160172 1156.644287,200.039658 
	C1157.880371,200.293869 1158.918335,201.424026 1160.103149,202.045425 
	C1160.896118,202.461288 1161.764771,202.803268 1162.639648,202.980988 
	C1169.389526,204.352020 1176.318115,205.129227 1182.860962,207.156967 
	C1190.288208,209.458908 1197.309082,213.039276 1204.625977,215.740845 
	C1210.932129,218.069275 1217.500244,219.694595 1223.782471,222.079010 
	C1232.863281,225.525558 1242.131836,228.730301 1250.682983,233.245132 
	C1258.545288,237.396210 1267.074829,239.848190 1274.838867,244.044617 
	C1283.591309,248.775299 1292.218140,253.738861 1300.894287,258.610382 
	C1305.230103,261.044922 1309.664551,263.325867 1313.860962,265.982025 
	C1322.642090,271.540375 1331.280151,277.324280 1340.010620,282.963409 
	C1342.283813,284.431763 1344.737305,285.621033 1347.010864,287.089020 
	C1353.319092,291.162048 1359.790161,295.027527 1365.796997,299.510742 
	C1372.759277,304.707001 1379.240234,310.543671 1386.047119,315.954987 
	C1388.462646,317.875153 1391.221069,319.364410 1393.825928,321.045624 
	C1394.199097,321.286499 1394.643066,321.441681 1394.964355,321.735046 
	C1402.932495,329.011383 1411.103027,336.082214 1418.799438,343.636078 
	C1432.723389,357.302063 1446.389648,371.231201 1460.077515,385.135223 
	C1461.383911,386.462280 1461.894531,388.544434 1463.107178,389.998627 
	C1464.894897,392.142120 1467.110229,393.927826 1468.909546,396.062958 
	C1471.390625,399.007263 1473.568604,402.206543 1476.041870,405.157959 
	C1477.532715,406.937073 1479.525635,408.303467 1480.966553,410.114960 
	C1485.398193,415.686340 1489.680664,421.376587 1494.005615,427.032684 
	C1496.728149,430.593353 1499.607056,434.053253 1502.078613,437.782043 
	C1504.610474,441.602051 1506.623779,445.762360 1509.071655,449.642883 
	C1510.571045,452.020203 1512.556030,454.085632 1514.157227,456.405609 
	C1518.883057,463.253601 1523.799072,469.992706 1528.118652,477.092041 
	C1531.803711,483.148376 1534.577393,489.752411 1538.102905,495.914642 
	C1541.396729,501.671631 1545.381104,507.036102 1548.624878,512.818298 
	C1551.090576,517.213623 1552.860107,521.998291 1554.960205,526.600159 
	C1556.811035,530.655823 1558.708374,534.690491 1560.553101,538.748962 
	C1562.386230,542.782288 1564.260376,546.799927 1565.968384,550.886353 
	C1567.875244,555.449280 1569.562378,560.103699 1571.442993,564.678040 
	C1573.231567,569.028564 1575.249634,573.286377 1576.979370,577.659119 
	C1579.009644,582.791382 1580.918823,587.975342 1582.731323,593.188843 
	C1584.581909,598.512695 1585.764771,604.128418 1588.144897,609.190796 
	C1590.269043,613.708557 1588.298462,619.259521 1592.590576,623.263428 
	C1594.222290,624.785522 1594.394409,628.043640 1594.892822,630.577148 
	C1596.355347,638.010803 1596.573853,645.921448 1599.401001,652.769348 
	C1601.156738,657.022400 1599.424316,661.966919 1603.417480,665.882568 
	C1605.601440,668.024170 1605.400513,672.772339 1605.921265,676.395935 
	C1606.766846,682.282532 1607.150635,688.237000 1608.043579,694.115051 
	C1609.127197,701.247131 1610.596680,708.319763 1611.766724,715.439941 
	C1612.087524,717.392151 1611.851562,719.429077 1612.015625,721.415222 
	C1612.375244,725.770813 1610.694336,730.434082 1614.609741,734.279358 
	C1615.553955,735.206665 1614.904907,737.778442 1614.950928,739.594910 
	C1615.637329,766.731934 1616.602539,793.866272 1616.867065,821.007507 
	C1616.983276,832.929871 1616.949219,845.136475 1614.511108,856.692383 
	C1613.104492,863.358826 1613.426636,870.211121 1611.533936,876.397095 
	C1610.038574,881.284851 1610.782227,885.881165 1609.952026,890.512085 
	C1608.937378,896.171692 1607.541382,901.762573 1606.331665,907.387756 
	C1606.159668,908.187622 1606.102173,909.012634 1606.000732,909.827148 
	C1605.329590,915.220886 1605.067261,920.707703 1603.865479,925.980347 
	C1602.866577,930.363037 1600.553833,934.429321 1599.217407,938.757507 
	C1598.172363,942.142090 1597.744751,945.716003 1597.020142,949.200989 
	C1595.675049,955.668762 1595.160400,962.494019 1592.620728,968.454895 
	C1591.236694,971.703430 1590.370483,974.734619 1589.683228,978.104431 
	C1589.032715,981.293335 1587.046753,984.185669 1586.097168,987.343445 
	C1584.536255,992.533447 1583.864014,998.041382 1581.878296,1003.042603 
	C1577.680054,1013.615906 1572.779053,1023.907898 1568.353394,1034.394287 
	C1565.403931,1041.382568 1562.990479,1048.600342 1559.950073,1055.545898 
	C1556.464966,1063.507324 1553.274292,1071.743896 1548.623413,1079.007812 
	C1543.886353,1086.406006 1540.584961,1094.485718 1536.016724,1101.917114 
	C1532.290894,1107.978271 1528.928955,1114.262451 1525.248413,1120.352661 
	C1524.550415,1121.507446 1523.115234,1122.216797 1521.559937,1123.479248 
	C1518.212646,1123.046265 1515.345947,1122.177490 1512.434937,1121.499268 
	C1496.185669,1117.713257 1479.800659,1114.437988 1463.698120,1110.110229 
	C1438.832397,1103.427368 1415.104858,1093.607666 1392.049561,1082.179321 
	C1358.258911,1065.429321 1326.950684,1044.924438 1298.164185,1020.515747 
	C1277.676636,1003.143860 1258.232544,984.709778 1240.951904,964.154541 
	C1213.981079,932.072815 1191.185913,897.261230 1173.828979,858.993652 
	C1168.858765,848.035583 1168.673462,848.117737 1177.310425,839.874695 
	C1217.460327,801.556824 1243.569336,754.690979 1259.885864,702.199707 
	C1268.057251,675.911682 1271.835205,648.831848 1271.475952,621.078491 
	C1271.160278,596.688171 1267.937378,573.158936 1258.257690,550.628418 
	C1243.955078,517.338196 1220.790771,495.053497 1184.010132,488.287445 
	C1167.422119,485.235992 1151.421631,487.386536 1135.797119,491.849457 
	C1114.562866,497.914673 1095.453491,508.617950 1078.140991,522.423401 
	C1075.024658,524.908508 1071.678711,527.105835 1068.104858,529.676208 
	C1065.448730,519.396362 1063.189453,510.114990 1060.647339,500.911743 
	C1051.880981,469.175201 1037.949219,439.993835 1016.859863,414.537933 
	C1001.256958,395.704468 982.824646,380.520996 959.453247,372.090881 
	C930.556274,361.667664 902.683350,363.985657 875.824219,378.782867 
	C855.689880,389.875244 840.344543,405.962189 827.473206,424.768555 
	C813.535767,445.132446 804.090759,467.552765 797.379944,491.072052 
	C793.843994,503.464478 792.159729,516.389099 789.728210,529.090454 
	C788.966064,533.071472 788.493408,537.108032 787.834412,541.476257 
	C786.637878,540.979248 786.006958,540.811951 785.476685,540.482544 
	C778.566711,536.190186 771.824402,531.602173 764.741577,527.618958 
	C747.049500,517.669373 728.062683,511.857147 707.655701,512.427979 
	C680.665894,513.183044 659.209412,525.236816 642.818054,546.391052 
	C630.631348,562.118958 622.668640,579.910950 619.124329,599.472656 
	C616.702698,612.837769 614.239258,626.296021 613.348267,639.815063 
	C611.876831,662.143127 614.100830,684.335999 619.038513,706.209778 
	C621.072205,715.219482 622.322876,724.482666 625.212219,733.205811 
	C630.619446,749.530640 636.901428,765.568420 642.965698,781.670532 
	C644.216492,784.991760 643.866943,786.981506 640.550415,788.916138 
	C616.450378,802.974182 598.939697,822.378174 590.271912,849.499573 
	C586.572937,861.073425 584.182190,872.711121 584.561890,884.685364 
	C585.359314,909.832153 593.148865,933.027771 607.162842,953.803650 
	C639.330383,1001.492004 685.559265,1027.019531 741.138916,1037.287109 
	C744.095581,1037.833252 745.728577,1038.830933 746.942139,1041.720215 
	C753.420288,1057.143433 759.745361,1072.653687 766.904724,1087.763672 
	C785.621460,1127.265869 806.961914,1165.342651 830.666870,1202.072632 
	C855.235779,1240.141479 882.644592,1276.067627 912.744934,1309.931641 
	C943.796814,1344.866211 977.657898,1376.816650 1014.465210,1405.645630 
	C1016.550476,1407.278687 1017.977844,1409.751831 1019.711487,1411.833984 
z"/>
<path fill="#FFF9EC" opacity="1.000000" stroke="none" 
	d="
M1020.199036,1411.900879 
	C1017.977844,1409.751831 1016.550476,1407.278687 1014.465210,1405.645630 
	C977.657898,1376.816650 943.796814,1344.866211 912.744934,1309.931641 
	C882.644592,1276.067627 855.235779,1240.141479 830.666870,1202.072632 
	C806.961914,1165.342651 785.621460,1127.265869 766.904724,1087.763672 
	C759.745361,1072.653687 753.420288,1057.143433 746.942139,1041.720215 
	C745.728577,1038.830933 744.095581,1037.833252 741.138916,1037.287109 
	C685.559265,1027.019531 639.330383,1001.492004 607.162842,953.803650 
	C593.148865,933.027771 585.359314,909.832153 584.561890,884.685364 
	C584.182190,872.711121 586.572937,861.073425 590.271912,849.499573 
	C598.939697,822.378174 616.450378,802.974182 640.550415,788.916138 
	C643.866943,786.981506 644.216492,784.991760 642.965698,781.670532 
	C636.901428,765.568420 630.619446,749.530640 625.212219,733.205811 
	C622.322876,724.482666 621.072205,715.219482 619.038513,706.209778 
	C614.100830,684.335999 611.876831,662.143127 613.348267,639.815063 
	C614.239258,626.296021 616.702698,612.837769 619.124329,599.472656 
	C622.668640,579.910950 630.631348,562.118958 642.818054,546.391052 
	C659.209412,525.236816 680.665894,513.183044 707.655701,512.427979 
	C728.062683,511.857147 747.049500,517.669373 764.741577,527.618958 
	C771.824402,531.602173 778.566711,536.190186 785.476685,540.482544 
	C786.006958,540.811951 786.637878,540.979248 787.834412,541.476257 
	C788.493408,537.108032 788.966064,533.071472 789.728210,529.090454 
	C792.159729,516.389099 793.843994,503.464478 797.379944,491.072052 
	C804.090759,467.552765 813.535767,445.132446 827.473206,424.768555 
	C840.344543,405.962189 855.689880,389.875244 875.824219,378.782867 
	C902.683350,363.985657 930.556274,361.667664 959.453247,372.090881 
	C982.824646,380.520996 1001.256958,395.704468 1016.859863,414.537933 
	C1037.949219,439.993835 1051.880981,469.175201 1060.647339,500.911743 
	C1063.189453,510.114990 1065.448730,519.396362 1068.104858,529.676208 
	C1071.678711,527.105835 1075.024658,524.908508 1078.140991,522.423401 
	C1095.453491,508.617950 1114.562866,497.914673 1135.797119,491.849457 
	C1151.421631,487.386536 1167.422119,485.235992 1184.010132,488.287445 
	C1220.790771,495.053497 1243.955078,517.338196 1258.257690,550.628418 
	C1267.937378,573.158936 1271.160278,596.688171 1271.475952,621.078491 
	C1271.835205,648.831848 1268.057251,675.911682 1259.885864,702.199707 
	C1243.569336,754.690979 1217.460327,801.556824 1177.310425,839.874695 
	C1168.673462,848.117737 1168.858765,848.035583 1173.828979,858.993652 
	C1191.185913,897.261230 1213.981079,932.072815 1240.951904,964.154541 
	C1258.232544,984.709778 1277.676636,1003.143860 1298.164185,1020.515747 
	C1326.950684,1044.924438 1358.258911,1065.429321 1392.049561,1082.179321 
	C1415.104858,1093.607666 1438.832397,1103.427368 1463.698120,1110.110229 
	C1479.800659,1114.437988 1496.185669,1117.713257 1512.434937,1121.499268 
	C1515.345947,1122.177490 1518.212646,1123.046265 1521.470459,1123.850342 
	C1518.276978,1129.414307 1514.660156,1134.921997 1511.167725,1140.507202 
	C1509.008911,1143.959961 1507.141235,1147.596802 1504.937866,1151.019043 
	C1503.973511,1152.517090 1502.422363,1153.623779 1501.274170,1155.020630 
	C1500.096802,1156.452515 1499.045776,1157.994263 1498.011108,1159.535889 
	C1495.683838,1163.003662 1493.500488,1166.572510 1491.068237,1169.963623 
	C1489.185425,1172.588989 1487.016357,1175.009277 1484.970093,1177.517212 
	C1483.576294,1179.225464 1482.248413,1180.996094 1480.752197,1182.610107 
	C1479.607666,1183.844849 1478.027344,1184.712524 1477.024292,1186.034302 
	C1474.560547,1189.281006 1473.022705,1193.845337 1469.836670,1195.797363 
	C1463.666992,1199.577271 1462.074829,1206.626709 1457.043457,1211.034546 
	C1451.870483,1215.566406 1446.790405,1220.220825 1441.902222,1225.056641 
	C1436.588623,1230.313477 1431.628662,1235.926392 1426.354858,1241.225220 
	C1421.344604,1246.259399 1416.232788,1251.203491 1410.973389,1255.975342 
	C1405.822388,1260.649048 1400.505005,1265.148438 1395.121460,1269.554443 
	C1389.123657,1274.463135 1382.956665,1279.164795 1376.887695,1283.987305 
	C1374.022339,1286.264160 1371.537598,1289.371460 1368.303955,1290.751831 
	C1363.335938,1292.872803 1360.187378,1296.978882 1356.050293,1299.942017 
	C1353.005615,1302.122681 1349.685425,1303.918945 1346.486206,1305.883423 
	C1340.441040,1309.595581 1334.364868,1313.258423 1328.358276,1317.032104 
	C1324.188843,1319.651489 1320.127441,1322.442383 1315.992065,1325.116821 
	C1313.594482,1326.667480 1311.178955,1328.195801 1308.712402,1329.632568 
	C1305.532593,1331.484863 1302.349487,1333.346558 1299.065796,1335.001709 
	C1294.879150,1337.112061 1290.508667,1338.866333 1286.371948,1341.064697 
	C1283.137573,1342.783325 1280.225342,1345.103516 1277.011108,1346.866943 
	C1273.573486,1348.752930 1269.937500,1350.274536 1266.412109,1352.004272 
	C1264.499390,1352.942749 1262.706543,1354.158203 1260.738281,1354.945190 
	C1253.767944,1357.732300 1246.664429,1360.199829 1239.765625,1363.149414 
	C1233.453247,1365.848145 1227.518066,1369.496216 1221.097778,1371.859619 
	C1211.704224,1375.317627 1202.046509,1378.069946 1192.460327,1380.988159 
	C1187.557251,1382.480835 1182.528564,1383.562012 1177.629395,1385.065918 
	C1175.381958,1385.755737 1173.394409,1387.308960 1171.141602,1387.961670 
	C1164.576050,1389.863525 1157.945312,1391.545288 1151.321533,1393.240601 
	C1147.442871,1394.233154 1143.517090,1395.040405 1139.635010,1396.020264 
	C1137.324585,1396.603394 1135.050537,1397.336914 1132.775513,1398.051636 
	C1132.016846,1398.289795 1131.330688,1398.867310 1130.568726,1398.968628 
	C1125.113525,1399.693115 1119.538208,1399.865845 1114.208130,1401.104614 
	C1104.558960,1403.347168 1094.735718,1404.026001 1085.042236,1405.498779 
	C1079.509521,1406.339355 1073.693481,1405.451172 1068.627075,1407.214600 
	C1059.141968,1410.516113 1049.600586,1408.050903 1040.163208,1409.060669 
	C1038.943604,1409.191162 1037.835449,1410.190918 1036.630127,1410.674561 
	C1035.340210,1411.191772 1034.009277,1411.902466 1032.673828,1411.954346 
	C1028.683960,1412.109497 1024.683105,1411.983765 1020.199036,1411.900879 
M1042.627808,804.876221 
	C1034.122925,797.170410 1025.388794,789.701111 1017.154236,781.716553 
	C986.876465,752.357788 952.836670,729.774170 910.360962,722.729309 
	C894.775024,720.144226 879.138062,720.518860 864.349426,727.286377 
	C847.544556,734.976624 835.949463,748.489990 825.889526,763.257568 
	C812.346436,783.138367 802.568604,804.939087 796.833679,828.308716 
	C792.098877,847.602539 787.191772,866.976013 784.475525,886.606750 
	C782.070740,903.986389 782.155212,921.764832 781.970703,939.375916 
	C781.868408,949.139893 782.618835,959.088501 784.499756,968.656128 
	C787.245605,982.623230 790.661316,996.548462 795.072510,1010.073669 
	C799.682983,1024.210083 806.937378,1037.189819 818.539001,1047.047974 
	C830.468689,1057.184692 844.050476,1060.555054 858.770752,1054.297363 
	C881.872620,1044.476685 900.733826,1028.799561 916.863220,1009.817383 
	C925.887573,999.196838 934.362610,988.109619 943.047974,977.279053 
	C953.018127,980.120972 962.966919,983.101746 972.995850,985.783081 
	C989.902893,990.303406 1007.017090,993.913086 1024.612671,993.574707 
	C1035.052246,993.373962 1045.481323,992.260559 1055.899536,991.374817 
	C1087.663574,988.674561 1107.932739,965.773499 1108.654541,935.125183 
	C1108.828125,927.753113 1108.214233,920.126099 1106.436035,912.997070 
	C1103.360962,900.669434 1100.353149,888.058044 1095.070923,876.601379 
	C1082.580566,849.511353 1064.687744,826.022461 1042.627808,804.876221 
M882.528320,584.081116 
	C882.335083,591.882568 881.884766,599.687805 881.997437,607.484802 
	C882.319580,629.780212 889.497620,649.776550 903.194641,667.311523 
	C912.959839,679.812927 925.585632,688.370361 941.428711,690.597290 
	C957.141968,692.805908 970.964722,687.425842 982.554199,676.801147 
	C1000.016663,660.792236 1007.617310,639.906067 1009.795227,617.081848 
	C1011.393066,600.336426 1009.564331,583.733948 1003.700134,567.613037 
	C998.721924,553.927612 991.714050,541.774109 981.231445,531.663818 
	C963.346375,514.414001 936.888245,510.737213 918.035034,522.990723 
	C896.243347,537.154114 886.729919,558.606323 882.528320,584.081116 
M785.787048,633.696899 
	C784.056091,632.403015 782.378906,631.028687 780.585327,629.828369 
	C769.361267,622.317261 757.119324,617.846741 743.522400,619.854736 
	C724.609070,622.647705 712.188110,634.193726 704.897400,651.314453 
	C697.989624,667.535950 696.788513,684.396667 700.749329,701.650818 
	C706.679932,727.485352 718.814514,749.084900 742.772766,762.228882 
	C761.019226,772.239197 781.225342,771.647156 797.867981,757.088562 
	C808.649109,747.657532 814.130920,735.374756 816.819275,721.883118 
	C819.714905,707.351746 818.541687,692.669800 814.327698,678.519775 
	C809.175903,661.221130 800.246155,646.042114 785.787048,633.696899 
M1059.410034,719.184570 
	C1061.716797,738.140503 1068.447388,755.082703 1082.257812,768.701904 
	C1090.749390,777.075867 1100.897095,782.250305 1112.988037,781.699707 
	C1130.479614,780.903015 1141.961182,770.541199 1150.324829,756.205322 
	C1160.321045,739.070923 1162.736938,720.269165 1161.158447,700.881104 
	C1159.554199,681.175659 1152.877075,663.468140 1139.399536,648.557800 
	C1121.455078,628.705811 1092.428223,629.217041 1076.053955,650.257568 
	C1060.420532,670.346130 1055.951538,693.438538 1059.410034,719.184570 
M671.744263,873.536987 
	C673.133301,882.008362 673.502197,890.809448 676.112183,898.886292 
	C682.648926,919.114624 695.279968,934.776428 714.684937,944.174683 
	C723.117920,948.259033 732.169800,951.240906 741.698547,948.968140 
	C763.767456,943.704102 771.235596,927.757629 772.809509,909.557861 
	C773.809448,897.994812 771.109070,886.756592 766.167664,876.294067 
	C755.688110,854.105774 740.343872,837.496277 715.027100,832.288696 
	C707.589111,830.758667 700.680725,831.879150 694.238586,834.969360 
	C678.622070,842.460449 672.207947,855.813843 671.744263,873.536987 
M948.543518,1178.049438 
	C954.833740,1178.724976 961.109131,1179.726562 967.416992,1180.013672 
	C984.940735,1180.810669 1002.120422,1178.978638 1019.117065,1174.138306 
	C1033.123413,1170.149658 1046.301270,1164.597412 1058.708496,1157.148438 
	C1077.115723,1146.097168 1093.130249,1132.335693 1106.714355,1115.572632 
	C1118.709106,1100.770630 1128.549561,1084.822021 1135.699463,1067.007324 
	C1124.956543,1075.596191 1114.106323,1084.071533 1104.385742,1093.688599 
	C1091.428467,1106.507935 1077.579224,1118.018555 1062.004761,1127.444214 
	C1041.092529,1140.100464 1018.463745,1148.334961 994.509338,1152.821411 
	C974.582886,1156.553589 954.442139,1157.585449 934.374756,1154.340454 
	C919.806274,1151.984619 905.433960,1148.438110 890.922363,1145.696899 
	C885.744141,1144.718628 880.413635,1144.546387 875.152649,1144.006226 
	C882.975281,1150.284546 891.202698,1155.808716 899.765320,1160.751953 
	C914.672913,1169.358032 931.001831,1174.202515 948.543518,1178.049438 
z"/>
<path fill="#f3be0f" opacity="1.000000" stroke="none" 
	d="
M1250.141602,1656.999756 
	C1251.660278,1655.375610 1252.738525,1653.752686 1254.323608,1651.367065 
	C1242.123779,1650.223145 1232.386475,1646.798096 1224.418823,1639.747314 
	C1218.467285,1634.480591 1214.562500,1627.494507 1213.161987,1619.692871 
	C1211.571045,1610.831421 1211.809082,1602.004028 1214.803101,1593.143921 
	C1218.940308,1580.900513 1226.654663,1572.099365 1237.631592,1565.775269 
	C1251.971680,1557.513428 1267.463989,1553.928467 1283.944702,1553.977173 
	C1312.267700,1554.060669 1340.591064,1554.000000 1368.914307,1554.000000 
	C1370.727539,1554.000000 1372.540649,1554.000000 1374.676025,1554.000000 
	C1374.676025,1566.641113 1374.676025,1579.041504 1374.676025,1592.015137 
	C1357.621948,1589.738770 1340.608276,1587.467896 1323.440186,1585.176392 
	C1322.162842,1589.412109 1323.028198,1591.429321 1328.165161,1592.187988 
	C1336.424438,1593.407715 1344.850098,1595.003540 1351.745972,1600.292603 
	C1362.204102,1608.314453 1363.042358,1621.683838 1358.166748,1632.614014 
	C1352.604492,1645.083984 1342.373291,1651.448120 1330.357910,1656.030151 
	C1314.830078,1661.952148 1298.627441,1662.316650 1282.358398,1661.916870 
	C1278.669434,1661.826294 1275.014893,1660.313354 1271.326538,1660.228760 
	C1268.969971,1660.174561 1266.432739,1661.252930 1264.256226,1662.368774 
	C1262.705811,1663.163574 1261.659058,1664.907227 1260.319824,1666.154663 
	C1258.225464,1668.106201 1255.403809,1670.472534 1257.351685,1673.175293 
	C1258.807739,1675.195557 1262.216675,1676.710693 1264.830933,1676.831421 
	C1274.141113,1677.261841 1283.483154,1677.000244 1292.813232,1677.000244 
	C1303.309448,1677.000366 1313.828491,1676.567261 1324.295898,1677.115479 
	C1335.960083,1677.726196 1347.845459,1678.464722 1358.378296,1684.212036 
	C1370.100220,1690.608154 1376.910522,1700.246826 1378.247192,1714.167236 
	C1379.116211,1723.216553 1378.493408,1731.806030 1375.345703,1740.026733 
	C1369.586914,1755.067017 1357.831787,1764.263916 1342.910278,1768.776245 
	C1332.727417,1771.855469 1322.032104,1773.974365 1311.433960,1774.773804 
	C1295.411743,1775.982300 1279.196533,1776.792603 1263.208740,1775.680176 
	C1247.511475,1774.588257 1231.411743,1773.178223 1217.746582,1763.411621 
	C1210.680542,1758.361694 1206.938354,1751.903564 1205.875000,1743.229858 
	C1204.500854,1732.020508 1208.087036,1722.946533 1216.598877,1716.114624 
	C1223.097656,1710.898682 1231.061157,1708.368408 1239.297363,1707.015869 
	C1242.671997,1706.461670 1246.072021,1706.060669 1249.618164,1705.568115 
	C1251.414062,1700.248047 1247.344116,1700.449097 1244.087891,1700.016479 
	C1238.761108,1699.308960 1233.394531,1698.866821 1228.093262,1698.011108 
	C1222.421631,1697.095703 1216.994995,1695.015259 1215.182983,1689.035645 
	C1213.079346,1682.093140 1215.003174,1675.863770 1220.044678,1670.346313 
	C1226.958740,1662.779297 1236.366699,1660.803711 1245.479980,1658.028076 
	C1246.863037,1657.606812 1248.292969,1657.339478 1250.141602,1656.999756 
M1277.454346,1735.000000 
	C1287.453003,1735.000000 1297.494141,1735.560425 1307.435181,1734.803711 
	C1314.083618,1734.297607 1320.744019,1732.377808 1327.110352,1730.233643 
	C1332.188477,1728.523193 1335.404419,1722.605591 1334.996338,1718.097290 
	C1334.341919,1710.868774 1332.060547,1707.755371 1325.298828,1705.841553 
	C1321.896729,1704.878540 1318.309937,1704.133911 1314.794800,1704.081421 
	C1301.328613,1703.880493 1287.856323,1703.892822 1274.388550,1704.034668 
	C1263.856079,1704.145630 1256.405396,1709.245728 1253.662231,1717.802612 
	C1251.864136,1723.411743 1254.018433,1729.736206 1259.456665,1731.580811 
	C1264.901978,1733.427856 1270.808228,1733.916260 1277.454346,1735.000000 
M1262.002075,1611.488037 
	C1262.332764,1612.731812 1262.838013,1613.957520 1262.967896,1615.221924 
	C1265.012939,1635.117065 1285.788940,1639.863159 1300.539673,1633.735474 
	C1308.418457,1630.462524 1315.197021,1620.647095 1313.155151,1606.989380 
	C1311.709229,1597.317749 1307.105469,1590.347778 1298.201050,1587.283936 
	C1288.451904,1583.929321 1278.808960,1585.196045 1270.475098,1592.043701 
	C1264.626221,1596.849365 1263.119263,1603.645264 1262.002075,1611.488037 
z"/>
<path fill="#f3be0f" opacity="1.000000" stroke="none" 
	d="
M577.661011,1619.020264 
	C586.615479,1622.453979 595.283691,1625.196899 602.512268,1631.600952 
	C610.141541,1638.359741 615.911255,1646.238892 619.880615,1655.317871 
	C624.462463,1665.797485 628.124207,1676.681030 632.136292,1687.407471 
	C636.094727,1697.990112 639.991821,1708.595703 644.090576,1719.663208 
	C642.696777,1719.786377 641.488098,1719.984619 640.279236,1719.986084 
	C623.619446,1720.006470 606.958923,1719.914917 590.300598,1720.069824 
	C586.858276,1720.101807 585.830994,1718.941040 584.842407,1715.602783 
	C579.847290,1698.735962 574.786621,1681.863037 568.902222,1665.292969 
	C564.242493,1652.171875 553.262329,1645.705811 540.175171,1644.258789 
	C529.097046,1643.034180 517.776001,1644.006226 506.080627,1644.006226 
	C506.080627,1668.723633 506.080627,1694.114258 506.080627,1719.750000 
	C488.885681,1719.750000 472.163086,1719.750000 455.220245,1719.750000 
	C455.220245,1651.624390 455.220245,1583.701172 455.220245,1515.388916 
	C471.831970,1515.388916 488.556824,1515.388916 505.708191,1515.388916 
	C505.708191,1544.241089 505.708191,1573.310425 505.708191,1602.533691 
	C539.931641,1590.036133 572.084045,1552.145630 581.508972,1515.245361 
	C600.945557,1515.245361 620.372620,1515.245361 641.559814,1515.245361 
	C636.116638,1526.894409 631.537903,1537.923828 625.930908,1548.402954 
	C617.643494,1563.892090 605.803833,1576.755737 592.888306,1588.429077 
	C582.325378,1597.976196 571.260071,1607.098511 557.575989,1612.225098 
	C556.254395,1612.720215 555.467834,1614.643311 554.011414,1616.416870 
	C562.608398,1617.375000 569.920044,1618.189819 577.661011,1619.020264 
z"/>
<path fill="#f3be0f" opacity="1.000000" stroke="none" 
	d="
M772.512512,1555.209961 
	C779.393982,1559.214722 786.246216,1562.576172 792.322754,1567.002441 
	C801.654785,1573.800415 805.946960,1584.073730 808.946472,1594.799316 
	C812.693176,1608.197021 812.946594,1622.005249 812.991882,1635.798706 
	C813.032349,1648.129028 812.613037,1660.474854 813.103271,1672.785767 
	C813.645752,1686.408936 815.008179,1699.999023 815.967651,1713.606689 
	C816.105652,1715.563843 815.986755,1717.539062 815.986755,1719.746826 
	C800.909302,1719.746826 786.167175,1719.746826 770.940796,1719.746826 
	C769.731018,1706.919189 768.532227,1694.208862 767.311462,1681.264893 
	C764.132324,1680.004517 762.245789,1681.676270 761.039246,1684.883057 
	C753.446289,1705.063721 738.640991,1717.799316 718.159668,1722.602295 
	C703.209717,1726.108398 687.777344,1725.406494 674.336243,1716.012329 
	C663.744446,1708.609741 658.205872,1698.279175 656.896729,1685.339355 
	C655.997009,1676.447021 656.669128,1668.037842 659.675903,1659.544922 
	C664.095886,1647.060181 673.697571,1640.125854 684.918945,1635.150635 
	C698.832520,1628.981934 713.875977,1627.122925 728.812927,1624.901367 
	C737.603333,1623.593994 746.409668,1621.878174 754.926941,1619.383789 
	C764.907837,1616.460815 764.066895,1605.981567 760.679810,1599.593628 
	C757.357605,1593.327881 751.293335,1590.484497 744.220459,1590.000977 
	C732.203735,1589.179199 721.191833,1591.507568 713.289917,1601.394531 
	C709.933289,1605.594360 707.616577,1610.625244 704.209351,1616.309326 
	C690.469971,1612.383301 675.670837,1608.154541 660.914856,1603.938110 
	C666.682556,1577.748901 689.126343,1557.803833 714.306030,1554.084839 
	C724.821167,1552.531738 735.494080,1551.166138 746.081726,1551.259277 
	C754.776794,1551.335693 763.451843,1553.695923 772.512512,1555.209961 
M763.009705,1646.556641 
	C763.009705,1645.234741 763.009705,1643.912842 763.009705,1642.576660 
	C756.466614,1644.301636 750.176453,1646.195068 743.776550,1647.582153 
	C737.132385,1649.022217 730.152893,1649.267822 723.747864,1651.351074 
	C718.231140,1653.145386 711.759583,1655.611694 708.511658,1659.901855 
	C703.986633,1665.878662 704.226257,1674.028442 709.274719,1680.349609 
	C713.871704,1686.105469 720.649414,1688.839478 727.967041,1687.825195 
	C739.101257,1686.281616 748.668091,1681.144409 755.964233,1672.448486 
	C762.007080,1665.246338 766.419006,1657.390869 763.009705,1646.556641 
z"/>
<path fill="#f3be0f" opacity="1.000000" stroke="none" 
	d="
M1505.965332,1682.416504 
	C1503.384155,1680.426147 1501.387939,1680.072266 1499.953247,1683.581055 
	C1493.068115,1700.419556 1482.074707,1713.442993 1464.656860,1720.033081 
	C1446.218994,1727.009155 1420.438110,1726.413086 1405.470581,1709.926392 
	C1399.046875,1702.850342 1395.215576,1694.402466 1395.109253,1684.812134 
	C1395.015625,1676.362183 1394.208984,1667.919434 1397.605591,1659.544189 
	C1402.525269,1647.413330 1411.735229,1640.096436 1422.983643,1635.142456 
	C1439.052856,1628.065552 1456.475952,1626.469604 1473.641846,1623.953247 
	C1479.416748,1623.106812 1485.169312,1621.963013 1490.835083,1620.562622 
	C1496.059204,1619.271606 1500.055786,1615.936035 1500.853882,1610.508789 
	C1501.782837,1604.191650 1499.830933,1598.248413 1494.577271,1594.337524 
	C1487.216187,1588.857910 1478.463379,1588.911499 1470.071777,1590.586060 
	C1457.365723,1593.121582 1448.506226,1600.513916 1444.727661,1613.424438 
	C1444.380249,1614.611694 1441.552856,1616.172363 1440.348755,1615.841797 
	C1426.532959,1612.047119 1412.808594,1607.919434 1398.886230,1603.829468 
	C1404.407959,1583.139771 1416.665771,1568.452881 1435.362793,1559.366699 
	C1444.575439,1554.889526 1454.520874,1552.419312 1464.873535,1551.985596 
	C1470.966797,1551.730225 1477.074951,1550.839233 1483.140015,1551.095093 
	C1499.580078,1551.788818 1515.567383,1554.614746 1529.025757,1565.020630 
	C1538.485474,1572.335083 1543.971191,1582.399902 1546.985596,1593.842041 
	C1550.180908,1605.970825 1551.220215,1618.331665 1551.039429,1630.856689 
	C1550.859253,1643.350220 1550.614502,1655.863525 1551.100708,1668.340820 
	C1551.664185,1682.800415 1553.020020,1697.228394 1553.966064,1711.674438 
	C1554.137085,1714.286255 1553.990356,1716.918823 1553.990356,1719.995728 
	C1539.808472,1719.995728 1526.024780,1720.059692 1512.244507,1719.872803 
	C1511.153442,1719.857910 1509.248047,1718.190674 1509.136475,1717.141113 
	C1507.925537,1705.735229 1506.997559,1694.299194 1505.965332,1682.416504 
M1460.131836,1687.633301 
	C1478.702759,1689.785278 1507.998169,1671.639526 1501.485474,1642.124390 
	C1497.511719,1643.411743 1493.607056,1644.940430 1489.568604,1645.912720 
	C1485.323486,1646.934570 1480.897095,1647.198120 1476.644409,1648.195435 
	C1468.962280,1649.996826 1461.132812,1651.510010 1453.769775,1654.236694 
	C1446.223145,1657.031372 1442.640869,1664.913208 1444.027588,1672.721069 
	C1445.263062,1679.677246 1452.277344,1686.203125 1460.131836,1687.633301 
z"/>
<path fill="#f3be0f" opacity="1.000000" stroke="none" 
	d="
M1184.001587,1690.000000 
	C1184.001587,1700.140137 1184.001587,1709.780273 1184.001587,1719.709351 
	C1166.997070,1719.709351 1150.268311,1719.709351 1133.000000,1719.709351 
	C1133.000000,1717.878906 1133.000000,1716.103027 1133.000000,1714.327271 
	C1133.000000,1692.829224 1133.125366,1671.330200 1132.953857,1649.833496 
	C1132.848145,1636.578125 1132.830933,1623.254639 1128.149170,1610.541138 
	C1125.128174,1602.337524 1120.057373,1595.567871 1111.132446,1594.195557 
	C1100.173828,1592.510376 1090.144775,1594.420532 1082.748779,1604.498169 
	C1075.793945,1613.974487 1072.381836,1624.438354 1072.104980,1635.804199 
	C1071.445435,1662.886963 1071.333130,1689.982910 1070.994995,1717.073608 
	C1070.984985,1717.877075 1070.922607,1718.680054 1070.860474,1720.000000 
	C1058.706299,1720.000000 1046.763672,1720.085938 1034.823364,1719.957642 
	C1030.083862,1719.906738 1023.818787,1721.062622 1021.073547,1718.564575 
	C1018.665405,1716.373047 1020.036377,1709.840210 1020.032288,1705.224731 
	C1019.989380,1657.062378 1020.073181,1608.899902 1019.899841,1560.738159 
	C1019.882751,1556.005005 1021.298706,1554.781494 1025.864502,1554.898438 
	C1037.676270,1555.201050 1049.500854,1555.000000 1061.785034,1555.000000 
	C1061.785034,1571.577271 1061.785034,1587.983398 1061.785034,1604.300659 
	C1066.952515,1605.236938 1066.847534,1605.206787 1068.065552,1600.964966 
	C1071.898315,1587.618042 1076.761353,1574.804688 1086.824219,1564.644165 
	C1093.477661,1557.926270 1101.885132,1554.314209 1110.729126,1552.294189 
	C1121.878052,1549.747803 1133.262573,1550.379150 1144.251831,1553.738403 
	C1162.388306,1559.282471 1172.906372,1572.511108 1177.737793,1590.022583 
	C1180.614136,1600.447754 1182.304443,1611.427612 1182.794434,1622.236572 
	C1183.809570,1644.629883 1183.667725,1667.075806 1184.001587,1690.000000 
z"/>
<path fill="#f3be0f" opacity="1.000000" stroke="none" 
	d="
M846.999817,1670.000000 
	C846.999817,1612.227051 846.999817,1554.954102 846.999817,1497.340698 
	C863.591797,1497.340698 879.977905,1497.340698 896.682983,1497.340698 
	C896.682983,1571.279053 896.682983,1645.298828 896.682983,1719.659424 
	C880.407349,1719.659424 864.021179,1719.659424 846.999817,1719.659424 
	C846.999817,1703.332520 846.999817,1686.916260 846.999817,1670.000000 
z"/>
<path fill="#f3be0f" opacity="1.000000" stroke="none" 
	d="
M983.999023,1571.002808 
	C983.999023,1620.778320 983.999023,1670.054810 983.999023,1719.623901 
	C982.710876,1719.762573 981.612000,1719.981934 980.512756,1719.983765 
	C966.191040,1720.006958 951.868591,1719.917847 937.548279,1720.058594 
	C934.110657,1720.092407 932.899292,1719.029907 932.905396,1715.487671 
	C932.995422,1663.530029 932.981079,1611.572144 932.930908,1559.614380 
	C932.928101,1556.687866 933.362305,1554.915527 936.946289,1554.945557 
	C952.413391,1555.075562 967.882263,1555.001221 983.999023,1555.001221 
	C983.999023,1560.321533 983.999023,1565.412598 983.999023,1571.002808 
z"/>
<path fill="#f3be0f" opacity="1.000000" stroke="none" 
	d="
M930.020386,1517.601440 
	C925.829834,1500.998047 935.719666,1487.337280 952.908569,1487.068604 
	C959.146973,1486.971069 965.545715,1486.926636 971.611511,1488.148071 
	C983.752197,1490.592651 987.449646,1496.798096 988.878540,1506.876831 
	C990.880554,1520.998535 982.887329,1530.367310 973.708191,1531.917725 
	C965.861023,1533.243286 957.687195,1534.384155 949.856873,1533.605591 
	C940.609680,1532.686157 933.197449,1527.595093 930.020386,1517.601440 
z"/>
<path fill="#f3be0f" opacity="1.000000" stroke="none" 
	d="
M1042.899658,805.105347 
	C1064.687744,826.022461 1082.580566,849.511353 1095.070923,876.601379 
	C1100.353149,888.058044 1103.360962,900.669434 1106.436035,912.997070 
	C1108.214233,920.126099 1108.828125,927.753113 1108.654541,935.125183 
	C1107.932739,965.773499 1087.663574,988.674561 1055.899536,991.374817 
	C1045.481323,992.260559 1035.052246,993.373962 1024.612671,993.574707 
	C1007.017090,993.913086 989.902893,990.303406 972.995850,985.783081 
	C962.966919,983.101746 953.018127,980.120972 943.047974,977.279053 
	C934.362610,988.109619 925.887573,999.196838 916.863220,1009.817383 
	C900.733826,1028.799561 881.872620,1044.476685 858.770752,1054.297363 
	C844.050476,1060.555054 830.468689,1057.184692 818.539001,1047.047974 
	C806.937378,1037.189819 799.682983,1024.210083 795.072510,1010.073669 
	C790.661316,996.548462 787.245605,982.623230 784.499756,968.656128 
	C782.618835,959.088501 781.868408,949.139893 781.970703,939.375916 
	C782.155212,921.764832 782.070740,903.986389 784.475525,886.606750 
	C787.191772,866.976013 792.098877,847.602539 796.833679,828.308716 
	C802.568604,804.939087 812.346436,783.138367 825.889526,763.257568 
	C835.949463,748.489990 847.544556,734.976624 864.349426,727.286377 
	C879.138062,720.518860 894.775024,720.144226 910.360962,722.729309 
	C952.836670,729.774170 986.876465,752.357788 1017.154236,781.716553 
	C1025.388794,789.701111 1034.122925,797.170410 1042.899658,805.105347 
z"/>
<path fill="#f3be0f" opacity="1.000000" stroke="none" 
	d="
M882.562012,583.638306 
	C886.729919,558.606323 896.243347,537.154114 918.035034,522.990723 
	C936.888245,510.737213 963.346375,514.414001 981.231445,531.663818 
	C991.714050,541.774109 998.721924,553.927612 1003.700134,567.613037 
	C1009.564331,583.733948 1011.393066,600.336426 1009.795227,617.081848 
	C1007.617310,639.906067 1000.016663,660.792236 982.554199,676.801147 
	C970.964722,687.425842 957.141968,692.805908 941.428711,690.597290 
	C925.585632,688.370361 912.959839,679.812927 903.194641,667.311523 
	C889.497620,649.776550 882.319580,629.780212 881.997437,607.484802 
	C881.884766,599.687805 882.335083,591.882568 882.562012,583.638306 
z"/>
<path fill="#f3be0f" opacity="1.000000" stroke="none" 
	d="
M786.074646,633.905823 
	C800.246155,646.042114 809.175903,661.221130 814.327698,678.519775 
	C818.541687,692.669800 819.714905,707.351746 816.819275,721.883118 
	C814.130920,735.374756 808.649109,747.657532 797.867981,757.088562 
	C781.225342,771.647156 761.019226,772.239197 742.772766,762.228882 
	C718.814514,749.084900 706.679932,727.485352 700.749329,701.650818 
	C696.788513,684.396667 697.989624,667.535950 704.897400,651.314453 
	C712.188110,634.193726 724.609070,622.647705 743.522400,619.854736 
	C757.119324,617.846741 769.361267,622.317261 780.585327,629.828369 
	C782.378906,631.028687 784.056091,632.403015 786.074646,633.905823 
z"/>
<path fill="#f3be0f" opacity="1.000000" stroke="none" 
	d="
M1059.319092,718.755005 
	C1055.951538,693.438538 1060.420532,670.346130 1076.053955,650.257568 
	C1092.428223,629.217041 1121.455078,628.705811 1139.399536,648.557800 
	C1152.877075,663.468140 1159.554199,681.175659 1161.158447,700.881104 
	C1162.736938,720.269165 1160.321045,739.070923 1150.324829,756.205322 
	C1141.961182,770.541199 1130.479614,780.903015 1112.988037,781.699707 
	C1100.897095,782.250305 1090.749390,777.075867 1082.257812,768.701904 
	C1068.447388,755.082703 1061.716797,738.140503 1059.319092,718.755005 
z"/>
<path fill="#f3be0f" opacity="1.000000" stroke="none" 
	d="
M671.748779,873.047974 
	C672.207947,855.813843 678.622070,842.460449 694.238586,834.969360 
	C700.680725,831.879150 707.589111,830.758667 715.027100,832.288696 
	C740.343872,837.496277 755.688110,854.105774 766.167664,876.294067 
	C771.109070,886.756592 773.809448,897.994812 772.809509,909.557861 
	C771.235596,927.757629 763.767456,943.704102 741.698547,948.968140 
	C732.169800,951.240906 723.117920,948.259033 714.684937,944.174683 
	C695.279968,934.776428 682.648926,919.114624 676.112183,898.886292 
	C673.502197,890.809448 673.133301,882.008362 671.748779,873.047974 
z"/>
<path fill="#f3be0f" opacity="1.000000" stroke="none" 
	d="
M948.120239,1177.988770 
	C931.001831,1174.202515 914.672913,1169.358032 899.765320,1160.751953 
	C891.202698,1155.808716 882.975281,1150.284546 875.152649,1144.006226 
	C880.413635,1144.546387 885.744141,1144.718628 890.922363,1145.696899 
	C905.433960,1148.438110 919.806274,1151.984619 934.374756,1154.340454 
	C954.442139,1157.585449 974.582886,1156.553589 994.509338,1152.821411 
	C1018.463745,1148.334961 1041.092529,1140.100464 1062.004761,1127.444214 
	C1077.579224,1118.018555 1091.428467,1106.507935 1104.385742,1093.688599 
	C1114.106323,1084.071533 1124.956543,1075.596191 1135.699463,1067.007324 
	C1128.549561,1084.822021 1118.709106,1100.770630 1106.714355,1115.572632 
	C1093.130249,1132.335693 1077.115723,1146.097168 1058.708496,1157.148438 
	C1046.301270,1164.597412 1033.123413,1170.149658 1019.117065,1174.138306 
	C1002.120422,1178.978638 984.940735,1180.810669 967.416992,1180.013672 
	C961.109131,1179.726562 954.833740,1178.724976 948.120239,1177.988770 
z"/>
</svg>