<svg width="36" height="36" viewBox="0 0 36 36" fill="none" xmlns="http://www.w3.org/2000/svg">
<path d="M31.2612 6.91481C30.495 6.14832 29.5854 5.54028 28.5842 5.12543C27.583 4.71059 26.5099 4.49707 25.4262 4.49707C24.3424 4.49707 23.2693 4.71059 22.2681 5.12543C21.2669 5.54028 20.3573 6.14832 19.5912 6.91481L18.0012 8.50481L16.4112 6.91481C14.8636 5.36727 12.7647 4.49787 10.5762 4.49787C8.38761 4.49787 6.28869 5.36727 4.74115 6.91481C3.19362 8.46235 2.32422 10.5613 2.32422 12.7498C2.32422 14.9384 3.19362 17.0373 4.74115 18.5848L18.0012 31.8448L31.2612 18.5848C32.0276 17.8187 32.6357 16.909 33.0505 15.9078C33.4654 14.9067 33.6789 13.8335 33.6789 12.7498C33.6789 11.6661 33.4654 10.593 33.0505 9.59178C32.6357 8.59059 32.0276 7.68094 31.2612 6.91481Z" fill="white" stroke="white" stroke-width="2.82446" stroke-linecap="round" stroke-linejoin="round"/>
</svg>
